<svg xmlns="http://www.w3.org/2000/svg" viewBox="0 0 64 64">
    <rect width="64" height="64" rx="14" fill="#f8f9ff"/>
    <path d="M10 18c0-3.3 2.7-6 6-6h13c2 0 3.8.8 5 2.1 1.2-1.3 3-2.1 5-2.1h9c3.3 0 6 2.7 6 6v32c0 1.1-.9 2-2 2H39c-2 0-3.8-.8-5-2.1-1.2 1.3-3 2.1-5 2.1H12c-1.1 0-2-.9-2-2V18Z" fill="#3525cd"/>
    <path d="M15 17.5c0-1.4 1.1-2.5 2.5-2.5H28c2.2 0 4 1.8 4 4v27c0 .7-.7 1.1-1.3.8-1.1-.5-2.3-.8-3.7-.8H17.5c-1.4 0-2.5-1.1-2.5-2.5v-27Z" fill="#ffffff"/>
    <path d="M36 19c0-2.2 1.8-4 4-4h6.5c1.4 0 2.5 1.1 2.5 2.5v27c0 1.4-1.1 2.5-2.5 2.5H41c-1.4 0-2.6.3-3.7.8-.6.3-1.3-.1-1.3-.8V19Z" fill="#ffffff"/>
    <path d="M34 16v34" stroke="#c3c0ff" stroke-width="3" stroke-linecap="round"/>
    <path d="M20 23h7M20 29h7M20 35h5M41 23h4M41 29h4M41 35h3" stroke="#3525cd" stroke-width="2.6" stroke-linecap="round"/>
    <path d="M14 49h14c2.5 0 4.5.8 6 2 1.5-1.2 3.5-2 6-2h10" stroke="#2419df" stroke-width="3" stroke-linecap="round"/>
</svg>
